<?xml version="1.0" encoding="UTF-8"?>
<svg xmlns="http://www.w3.org/2000/svg" viewBox="0 0 519.17 553.46">
  <defs>
    <style>
      .cls-1 {
        stroke: blue;
      }

      .cls-1, .cls-2 {
        fill: none;
        stroke-linecap: round;
        stroke-linejoin: round;
        stroke-width: .71px;
      }

      .cls-2 {
        stroke: red;
      }
    </style>
  </defs>
  <g id="CUTOUTS">
    <g id="CIRCLE">
      <circle class="cls-2" cx="462.12" cy="411.38" r="14.17"/>
    </g>
    <g id="CIRCLE-2" data-name="CIRCLE">
      <circle class="cls-2" cx="462.12" cy="354.69" r="14.17"/>
    </g>
    <g id="CIRCLE-3" data-name="CIRCLE">
      <circle class="cls-2" cx="462.12" cy="468.07" r="14.17"/>
    </g>
    <g id="CIRCLE-4" data-name="CIRCLE">
      <circle class="cls-2" cx="448.22" cy="47.13" r="4.25"/>
    </g>
    <g id="CIRCLE-5" data-name="CIRCLE">
      <circle class="cls-2" cx="475.72" cy="47.13" r="4.25"/>
    </g>
    <g id="CIRCLE-6" data-name="CIRCLE">
      <circle class="cls-2" cx="32.81" cy="411.38" r="8.5"/>
    </g>
    <g id="CIRCLE-7" data-name="CIRCLE">
      <circle class="cls-2" cx="32.81" cy="510.59" r="8.5"/>
    </g>
    <g id="CIRCLE-8" data-name="CIRCLE">
      <circle class="cls-2" cx="405.83" cy="484.77" r="4.25"/>
    </g>
    <g id="CIRCLE-9" data-name="CIRCLE">
      <circle class="cls-2" cx="334.97" cy="343.03" r="4.25"/>
    </g>
    <g id="CIRCLE-10" data-name="CIRCLE">
      <circle class="cls-2" cx="334.97" cy="484.77" r="4.25"/>
    </g>
    <g id="CIRCLE-11" data-name="CIRCLE">
      <circle class="cls-2" cx="405.83" cy="343.03" r="4.25"/>
    </g>
    <g id="LWPOLYLINE">
      <path class="cls-2" d="M452.05,181.34c-1.02-2.11-3.57-3-5.68-1.97s-3,3.57-1.97,5.68,3.57,3,5.68,1.97c1.95-.94,2.88-3.2,2.16-5.24h7.61v35.76c-3.73,1.17-5.81,5.15-4.63,8.89s5.15,5.81,8.89,4.63,5.81-5.15,4.63-8.89c-.69-2.21-2.43-3.94-4.63-4.63v-35.76h7.61c-.78,2.21.38,4.64,2.59,5.43s4.64-.38,5.43-2.59-.38-4.64-2.59-5.43c-2.04-.72-4.3.21-5.24,2.16v-8.07h18.43V57.05h-56.69v116.22h18.43v8.07Z"/>
    </g>
    <g id="LWPOLYLINE-2" data-name="LWPOLYLINE">
      <rect class="cls-2" x="388.12" y="359.33" width="7.8" height="109.13"/>
    </g>
    <g id="LWPOLYLINE-3" data-name="LWPOLYLINE">
      <rect class="cls-2" x="344.89" y="359.33" width="7.8" height="109.13"/>
    </g>
  </g>
  <g id="PERIMETER">
    <g id="LWPOLYLINE-4" data-name="LWPOLYLINE">
      <path class="cls-1" d="M163.99,368.86H.35v184.25h518.46V.35h-113.39l-109.53,278.63c-21.32,54.22-73.64,89.88-131.91,89.88Z"/>
    </g>
  </g>
</svg>